<svg height="512" viewBox="0 0 64 64" width="512" xmlns="http://www.w3.org/2000/svg" xmlns:xlink="http://www.w3.org/1999/xlink"><linearGradient id="New_Gradient_Swatch_3" gradientUnits="userSpaceOnUse" x1="32" x2="32" y1="63.307" y2="1.344"><stop offset="0" stop-color="#006df0"/><stop offset="1" stop-color="#00e7f0"/></linearGradient><g id="Shopping" fill="url(#New_Gradient_Swatch_3)"><path d="m39.29 50.418c6.259-7.391 14.71-18.78 14.71-26.418a22 22 0 0 0 -44 0c0 7.638 8.451 19.027 14.71 26.418-4.236.526-11.71 1.968-11.71 5.582 0 3.939 9.558 6 19 6s19-2.061 19-6c0-3.614-7.474-5.056-11.71-5.582zm-7.29-46.418a20.023 20.023 0 0 1 20 20c0 9.874-16.353 27.7-20 31.555-3.647-3.855-20-21.677-20-31.555a20.023 20.023 0 0 1 20-20zm0 56c-11 0-17-2.643-17-4 0-.945 3.33-2.977 11.293-3.742 2.7 3.094 4.732 5.176 4.993 5.442a1 1 0 0 0 1.428 0c.261-.266 2.29-2.348 4.993-5.442 7.963.765 11.293 2.797 11.293 3.742 0 1.357-6 4-17 4z"/><path d="m32 7a17 17 0 1 0 17 17 17.019 17.019 0 0 0 -17-17zm0 32a15 15 0 1 1 10.163-26h-1.382a2 2 0 0 0 -1.941 1.515l-.621 2.485h-17.219a1 1 0 0 0 -.98 1.2l2 10a1 1 0 0 0 .98.8h14.5a.5.5 0 0 1 0 1h-13.5a1 1 0 0 0 0 2h.78a3 3 0 1 0 4.44 0h3.56a3 3 0 1 0 4.44 0h.28a2.493 2.493 0 0 0 .7-4.889l1.778-8.888.803-3.223h3.19a14.971 14.971 0 0 1 -11.971 24zm1.6-17 .3-3h3.88l-.6 3zm3.175 2-.6 3h-3.075l.3-3zm-8.375-2-.3-3h3.8l-.3 3zm2.99 2-.3 3h-2.19l-.3-3zm-4.8 0 .3 3h-3.07l-.6-3zm-3.77-2-.6-3h3.88l.3 3zm13.18 12a1 1 0 1 1 -1-1 1 1 0 0 1 1 1zm-8 0a1 1 0 1 1 -1-1 1 1 0 0 1 1 1z"/></g></svg>